HIERARCHY
ROOT Root
{
	OFFSET 0.00000 0.00000 0.00000
	CHANNELS 6 Xposition Yposition Zposition Zrotation Xrotation Yrotation
	JOINT Hips
	{
		OFFSET 0 0 0	
		CHANNELS 3 Zrotation Xrotation Yrotation
		JOINT Spine
		{
			OFFSET 0 4 0	
			CHANNELS 3 Zrotation Xrotation Yrotation
			JOINT Spine1
			{
				OFFSET 0 19.4 0	
				CHANNELS 3 Zrotation Xrotation Yrotation
				JOINT Spine2
				{
					OFFSET 0 16.6 0	
					CHANNELS 3 Zrotation Xrotation Yrotation
					JOINT LeftCollar
					{
						OFFSET 0 10 0	
						CHANNELS 3 Zrotation Xrotation Yrotation
						JOINT LeftArm
						{
							OFFSET 15.6 -2 3	
							CHANNELS 3 Zrotation Xrotation Yrotation
							JOINT LeftForeArm
							{
								OFFSET 3.5 -27 -1	
								CHANNELS 3 Zrotation Xrotation Yrotation
								JOINT LeftHand
								{
									OFFSET 1 -27 1	
									CHANNELS 3 Zrotation Xrotation Yrotation
									End Site
									{
										OFFSET 0 -15 0
									}
								}
							}
						}
					}
					JOINT RightCollar
					{
						OFFSET 0 10 0	
						CHANNELS 3 Zrotation Xrotation Yrotation
						JOINT RightArm
						{
							OFFSET -15.6 -2 3	
							CHANNELS 3 Zrotation Xrotation Yrotation
							JOINT RightForeArm
							{
								OFFSET -3.5 -27 -1	
								CHANNELS 3 Zrotation Xrotation Yrotation
								JOINT RightHand
								{
									OFFSET -1 -27 1	
									CHANNELS 3 Zrotation Xrotation Yrotation
									End Site
									{
										OFFSET 0 -15 0
									}
								}
							}
						}
					}
					JOINT Neck
					{
						OFFSET 0 10 0	
						CHANNELS 3 Zrotation Xrotation Yrotation
						JOINT Head
						{
							OFFSET 0 12.7 3	
							CHANNELS 3 Zrotation Xrotation Yrotation
							End Site
							{
								OFFSET 0 12.7 3
							}
						}
					}
				}
			}
		}
	}
	JOINT LeftHip
	{
		OFFSET 0 0 0	
		CHANNELS 3 Zrotation Xrotation Yrotation
		JOINT LeftUpLeg
		{
			OFFSET 8.8 -6 0	
			CHANNELS 3 Zrotation Xrotation Yrotation
			JOINT LeftLeg
			{
				OFFSET 0 -39 2	
				CHANNELS 3 Zrotation Xrotation Yrotation
				JOINT LeftFoot
				{
					OFFSET 0 -43 -2	
					CHANNELS 3 Zrotation Xrotation Yrotation
					JOINT LeftFootFront
					{
						OFFSET 0 -7 8.5	
						CHANNELS 3 Zrotation Xrotation Yrotation
						End Site
						{
							OFFSET 0 -0.5 9
						}
					}
				}
				JOINT LeftHeel
				{
					OFFSET 0 -43 -2	
					CHANNELS 3 Zrotation Xrotation Yrotation
					End Site
					{
						OFFSET 0 -7.5 -5
					}
				}
			}
		}
	}
	JOINT RightHip
	{
		OFFSET 0 0 0	
		CHANNELS 3 Zrotation Xrotation Yrotation
		JOINT RightUpLeg
		{
			OFFSET -8.8 -6 0	
			CHANNELS 3 Zrotation Xrotation Yrotation
			JOINT RightLeg
			{
				OFFSET 0 -39 2	
				CHANNELS 3 Zrotation Xrotation Yrotation
				JOINT RightFoot
				{
					OFFSET 0 -43 -2	
					CHANNELS 3 Zrotation Xrotation Yrotation
					JOINT RightFootFront
					{
						OFFSET 0 -7 8.5	
						CHANNELS 3 Zrotation Xrotation Yrotation
						End Site
						{
							OFFSET 0 -0.5 9
						}
					}
				}
				JOINT RightHeel
				{
					OFFSET 0 -43 -2	
					CHANNELS 3 Zrotation Xrotation Yrotation
					End Site
					{
						OFFSET 0 -7.5 -5
					}
				}
			}
		}
	}
}
MOTION
Frames: 30
Frame Time: 0.05
0 95.5 0 -0 0 -0 -0 0 -0 -0 0 -0 6.1931 -4.0042 46.229 -0 0 -0 -0 0 -0 9.1729 -21.742 -11.667 -142.74 -49.177 -76.087 -0 0 -0 -0 0 -0 -4.4755 -32.945 24.121 134.38 -49.854 46.514 -0 0 -0 -1.0139 2.7706 12.516 -1.0139 2.7706 12.516 -0 0 -0 -0 0 -0 -0 0 -0 -0 0 -0 -0 0 -0 -0 0 -0 -0 0 -0 -0 0 -0 -0 0 -0 -0 0 -0 -0 0 -0 -0 0 -0 
0 95.5 0 -0 0 -0 -0 0 -0 -0 0 -0 6.2262 -4.0248 46.452 -0 0 -0 -0 0 -0 9.0806 -21.959 -11.82 -142.99 -49.169 -76.409 -0 0 -0 -0 0 -0 -4.3345 -33.23 24.207 134.67 -49.657 47.401 -0 0 -0 -0.86932 2.8527 12.519 -0.86932 2.8527 12.519 -0 0 -0 -0 0 -0 -0 0 -0 -0 0 -0 -0 0 -0 -0 0 -0 -0 0 -0 -0 0 -0 -0 0 -0 -0 0 -0 -0 0 -0 -0 0 -0 
0 95.5 0 -0 0 -0 -0 0 -0 -0 0 -0 6.227 -4.0502 46.652 -0 0 -0 -0 0 -0 9.0034 -22.202 -11.98 -143.21 -49.156 -76.735 -0 0 -0 -0 0 -0 -4.1814 -33.567 24.282 134.83 -49.511 48.075 -0 0 -0 -0.67588 2.9031 12.484 -0.67588 2.9031 12.484 -0 0 -0 -0 0 -0 -0 0 -0 -0 0 -0 -0 0 -0 -0 0 -0 -0 0 -0 -0 0 -0 -0 0 -0 -0 0 -0 -0 0 -0 -0 0 -0 
0 95.5 0 -0 0 -0 -0 0 -0 -0 0 -0 6.196 -4.0244 46.799 -0 0 -0 -0 0 -0 8.9294 -22.493 -12.143 -143.5 -49.18 -77.132 -0 0 -0 -0 0 -0 -4.0283 -33.974 24.432 134.97 -49.407 48.681 -0 0 -0 -0.5122 2.921 12.486 -0.5122 2.921 12.486 -0 0 -0 -0 0 -0 -0 0 -0 -0 0 -0 -0 0 -0 -0 0 -0 -0 0 -0 -0 0 -0 -0 0 -0 -0 0 -0 -0 0 -0 -0 0 -0 
0 95.5 0 -0 0 -0 -0 0 -0 -0 0 -0 6.1544 -4.0281 46.952 -0 0 -0 -0 0 -0 8.8691 -22.78 -12.342 -143.8 -49.202 -77.483 -0 0 -0 -0 0 -0 -3.8757 -34.36 24.569 135.11 -49.299 49.436 -0 0 -0 -0.35675 2.9266 12.461 -0.35675 2.9266 12.461 -0 0 -0 -0 0 -0 -0 0 -0 -0 0 -0 -0 0 -0 -0 0 -0 -0 0 -0 -0 0 -0 -0 0 -0 -0 0 -0 -0 0 -0 -0 0 -0 
0 95.5 0 -0 0 -0 -0 0 -0 -0 0 -0 6.191 -4.0641 47.039 -0 0 -0 -0 0 -0 8.8013 -22.979 -12.474 -144.06 -49.183 -77.791 -0 0 -0 -0 0 -0 -3.7577 -34.667 24.739 135.31 -49.191 50.062 -0 0 -0 -0.24967 2.8956 12.451 -0.24967 2.8956 12.451 -0 0 -0 -0 0 -0 -0 0 -0 -0 0 -0 -0 0 -0 -0 0 -0 -0 0 -0 -0 0 -0 -0 0 -0 -0 0 -0 -0 0 -0 -0 0 -0 
0 95.5 0 -0 0 -0 -0 0 -0 -0 0 -0 6.2066 -4.0924 47.124 -0 0 -0 -0 0 -0 8.7419 -23.171 -12.624 -144.26 -49.158 -78.013 -0 0 -0 -0 0 -0 -3.6749 -34.978 24.857 135.45 -49.008 50.513 -0 0 -0 -0.1855 2.8616 12.451 -0.1855 2.8616 12.451 -0 0 -0 -0 0 -0 -0 0 -0 -0 0 -0 -0 0 -0 -0 0 -0 -0 0 -0 -0 0 -0 -0 0 -0 -0 0 -0 -0 0 -0 -0 0 -0 
0 95.5 0 -0 0 -0 -0 0 -0 -0 0 -0 6.1491 -4.1202 47.203 -0 0 -0 -0 0 -0 8.7383 -23.372 -12.782 -144.47 -49.149 -78.232 -0 0 -0 -0 0 -0 -3.576 -35.293 24.94 135.53 -48.816 50.952 -0 0 -0 -0.12948 2.8394 12.436 -0.12948 2.8394 12.435 -0 0 -0 -0 0 -0 -0 0 -0 -0 0 -0 -0 0 -0 -0 0 -0 -0 0 -0 -0 0 -0 -0 0 -0 -0 0 -0 -0 0 -0 -0 0 -0 
0 95.5 0 -0 0 -0 -0 0 -0 -0 0 -0 6.1585 -4.1487 47.244 -0 0 -0 -0 0 -0 8.7254 -23.464 -12.899 -144.65 -49.151 -78.372 -0 0 -0 -0 0 -0 -3.5118 -35.485 25.051 135.6 -48.598 51.361 -0 0 -0 -0.095114 2.8762 12.454 -0.095114 2.8762 12.454 -0 0 -0 -0 0 -0 -0 0 -0 -0 0 -0 -0 0 -0 -0 0 -0 -0 0 -0 -0 0 -0 -0 0 -0 -0 0 -0 -0 0 -0 -0 0 -0 
0 95.5 0 -0 0 -0 -0 0 -0 -0 0 -0 6.098 -4.0975 47.305 -0 0 -0 -0 0 -0 8.7117 -23.6 -13.03 -144.89 -49.106 -78.538 -0 0 -0 -0 0 -0 -3.491 -35.702 25.131 135.66 -48.416 51.779 -0 0 -0 -0.048056 2.8624 12.466 -0.048057 2.8624 12.466 -0 0 -0 -0 0 -0 -0 0 -0 -0 0 -0 -0 0 -0 -0 0 -0 -0 0 -0 -0 0 -0 -0 0 -0 -0 0 -0 -0 0 -0 -0 0 -0 
0 95.5 0 -0 0 -0 -0 0 -0 -0 0 -0 6.0425 -4.0667 47.395 -0 0 -0 -0 0 -0 8.7182 -23.681 -13.194 -145.1 -49.08 -78.723 -0 0 -0 -0 0 -0 -3.4957 -35.828 25.186 135.76 -48.266 52.181 -0 0 -0 0.026132 2.8857 12.467 0.026134 2.8857 12.467 -0 0 -0 -0 0 -0 -0 0 -0 -0 0 -0 -0 0 -0 -0 0 -0 -0 0 -0 -0 0 -0 -0 0 -0 -0 0 -0 -0 0 -0 -0 0 -0 
0 95.5 0 -0 0 -0 -0 0 -0 -0 0 -0 6.0396 -4.0497 47.485 -0 0 -0 -0 0 -0 8.722 -23.705 -13.331 -145.22 -49.073 -78.764 -0 0 -0 -0 0 -0 -3.5242 -35.868 25.234 135.84 -48.11 52.504 -0 0 -0 0.094164 2.9467 12.469 0.094163 2.9467 12.469 -0 0 -0 -0 0 -0 -0 0 -0 -0 0 -0 -0 0 -0 -0 0 -0 -0 0 -0 -0 0 -0 -0 0 -0 -0 0 -0 -0 0 -0 -0 0 -0 
0 95.5 0 -0 0 -0 -0 0 -0 -0 0 -0 5.9848 -3.9784 47.606 -0 0 -0 -0 0 -0 8.73 -23.787 -13.483 -145.36 -49.048 -78.868 -0 0 -0 -0 0 -0 -3.5776 -35.953 25.228 135.91 -47.99 52.852 -0 0 -0 0.17557 2.9468 12.448 0.17557 2.9468 12.448 -0 0 -0 -0 0 -0 -0 0 -0 -0 0 -0 -0 0 -0 -0 0 -0 -0 0 -0 -0 0 -0 -0 0 -0 -0 0 -0 -0 0 -0 -0 0 -0 
0 95.5 0 -0 0 -0 -0 0 -0 -0 0 -0 5.9748 -3.9067 47.74 -0 0 -0 -0 0 -0 8.7179 -23.82 -13.637 -145.5 -49.025 -78.966 -0 0 -0 -0 0 -0 -3.6625 -35.956 25.235 135.98 -47.885 53.146 -0 0 -0 0.24847 3.0034 12.435 0.24847 3.0034 12.435 -0 0 -0 -0 0 -0 -0 0 -0 -0 0 -0 -0 0 -0 -0 0 -0 -0 0 -0 -0 0 -0 -0 0 -0 -0 0 -0 -0 0 -0 -0 0 -0 
0 95.5 0 -0 0 -0 -0 0 -0 -0 0 -0 5.9236 -3.8207 47.885 -0 0 -0 -0 0 -0 8.7108 -23.872 -13.783 -145.65 -48.986 -79.053 -0 0 -0 -0 0 -0 -3.7252 -35.958 25.267 136.07 -47.802 53.416 -0 0 -0 0.29529 3.0818 12.427 0.29529 3.0818 12.427 -0 0 -0 -0 0 -0 -0 0 -0 -0 0 -0 -0 0 -0 -0 0 -0 -0 0 -0 -0 0 -0 -0 0 -0 -0 0 -0 -0 0 -0 -0 0 -0 
0 95.5 0 -0 0 -0 -0 0 -0 -0 0 -0 5.8031 -3.6759 48.006 -0 0 -0 -0 0 -0 8.6951 -24.005 -13.909 -145.8 -48.939 -79.138 -0 0 -0 -0 0 -0 -3.7542 -36.039 25.327 136.14 -47.693 53.665 -0 0 -0 0.33457 3.1103 12.432 0.33457 3.1103 12.432 -0 0 -0 -0 0 -0 -0 0 -0 -0 0 -0 -0 0 -0 -0 0 -0 -0 0 -0 -0 0 -0 -0 0 -0 -0 0 -0 -0 0 -0 -0 0 -0 
0 95.5 0 -0 0 -0 -0 0 -0 -0 0 -0 5.7661 -3.5618 48.082 -0 0 -0 -0 0 -0 8.6547 -24.069 -14.047 -146.02 -48.883 -79.349 -0 0 -0 -0 0 -0 -3.7484 -36.069 25.464 136.17 -47.616 53.849 -0 0 -0 0.35024 3.1579 12.464 0.35024 3.1579 12.464 -0 0 -0 -0 0 -0 -0 0 -0 -0 0 -0 -0 0 -0 -0 0 -0 -0 0 -0 -0 0 -0 -0 0 -0 -0 0 -0 -0 0 -0 -0 0 -0 
0 95.5 0 -0 0 -0 -0 0 -0 -0 0 -0 5.6916 -3.4861 48.151 -0 0 -0 -0 0 -0 8.6529 -24.183 -14.191 -146.2 -48.861 -79.45 -0 0 -0 -0 0 -0 -3.6641 -36.172 25.643 136.19 -47.572 54.008 -0 0 -0 0.42895 3.1015 12.557 0.42895 3.1015 12.557 -0 0 -0 -0 0 -0 -0 0 -0 -0 0 -0 -0 0 -0 -0 0 -0 -0 0 -0 -0 0 -0 -0 0 -0 -0 0 -0 -0 0 -0 -0 0 -0 
0 95.5 0 -0 0 -0 -0 0 -0 -0 0 -0 5.5341 -3.3369 48.195 -0 0 -0 -0 0 -0 8.6414 -24.489 -14.275 -146.37 -48.873 -79.516 -0 0 -0 -0 0 -0 -3.5456 -36.483 25.837 136.11 -47.569 54.084 -0 0 -0 0.44571 2.8644 12.744 0.44571 2.8644 12.744 -0 0 -0 -0 0 -0 -0 0 -0 -0 0 -0 -0 0 -0 -0 0 -0 -0 0 -0 -0 0 -0 -0 0 -0 -0 0 -0 -0 0 -0 -0 0 -0 
0 95.5 0 -0 0 -0 -0 0 -0 -0 0 -0 5.397 -3.214 48.244 -0 0 -0 -0 0 -0 8.594 -24.833 -14.37 -146.52 -48.861 -79.653 -0 0 -0 -0 0 -0 -3.3933 -36.848 26.013 135.92 -47.591 54.011 -0 0 -0 0.43887 2.5798 12.808 0.43887 2.5798 12.808 -0 0 -0 -0 0 -0 -0 0 -0 -0 0 -0 -0 0 -0 -0 0 -0 -0 0 -0 -0 0 -0 -0 0 -0 -0 0 -0 -0 0 -0 -0 0 -0 
0 95.5 0 -0 0 -0 -0 0 -0 -0 0 -0 5.3058 -3.1372 48.261 -0 0 -0 -0 0 -0 8.5745 -25.14 -14.451 -146.74 -48.837 -79.934 -0 0 -0 -0 0 -0 -3.2094 -37.223 26.247 135.79 -47.7 54.05 -0 0 -0 0.44647 2.3005 12.864 0.44647 2.3005 12.864 -0 0 -0 -0 0 -0 -0 0 -0 -0 0 -0 -0 0 -0 -0 0 -0 -0 0 -0 -0 0 -0 -0 0 -0 -0 0 -0 -0 0 -0 -0 0 -0 
0 95.5 0 -0 0 -0 -0 0 -0 -0 0 -0 5.163 -3.0303 48.309 -0 0 -0 -0 0 -0 8.5625 -25.553 -14.497 -146.88 -48.815 -80.117 -0 0 -0 -0 0 -0 -3.0556 -37.711 26.422 135.69 -47.81 54.055 -0 0 -0 0.45323 1.9748 12.934 0.45323 1.9748 12.934 -0 0 -0 -0 0 -0 -0 0 -0 -0 0 -0 -0 0 -0 -0 0 -0 -0 0 -0 -0 0 -0 -0 0 -0 -0 0 -0 -0 0 -0 -0 0 -0 
0 95.5 0 -0 0 -0 -0 0 -0 -0 0 -0 5.0273 -2.9803 48.379 -0 0 -0 -0 0 -0 8.5846 -25.922 -14.527 -147 -48.801 -80.301 -0 0 -0 -0 0 -0 -2.8918 -38.186 26.563 135.63 -47.871 54.103 -0 0 -0 0.47819 1.6299 12.953 0.47819 1.6299 12.953 -0 0 -0 -0 0 -0 -0 0 -0 -0 0 -0 -0 0 -0 -0 0 -0 -0 0 -0 -0 0 -0 -0 0 -0 -0 0 -0 -0 0 -0 -0 0 -0 
0 95.5 0 -0 0 -0 -0 0 -0 -0 0 -0 4.9872 -2.9759 48.425 -0 0 -0 -0 0 -0 8.5983 -26.139 -14.517 -147.03 -48.828 -80.421 -0 0 -0 -0 0 -0 -2.7709 -38.51 26.76 135.64 -47.864 54.288 -0 0 -0 0.4655 1.3236 13.017 0.4655 1.3236 13.017 -0 0 -0 -0 0 -0 -0 0 -0 -0 0 -0 -0 0 -0 -0 0 -0 -0 0 -0 -0 0 -0 -0 0 -0 -0 0 -0 -0 0 -0 -0 0 -0 
0 95.5 0 -0 0 -0 -0 0 -0 -0 0 -0 4.8956 -2.9962 48.543 -0 0 -0 -0 0 -0 8.6525 -26.275 -14.54 -146.93 -48.887 -80.389 -0 0 -0 -0 0 -0 -2.7452 -38.701 26.824 135.71 -47.728 54.604 -0 0 -0 0.45357 1.0131 13.031 0.45357 1.0131 13.031 -0 0 -0 -0 0 -0 -0 0 -0 -0 0 -0 -0 0 -0 -0 0 -0 -0 0 -0 -0 0 -0 -0 0 -0 -0 0 -0 -0 0 -0 -0 0 -0 
0 95.5 0 -0 0 -0 -0 0 -0 -0 0 -0 4.7787 -3.0412 48.719 -0 0 -0 -0 0 -0 8.7623 -26.311 -14.53 -146.62 -48.99 -80.155 -0 0 -0 -0 0 -0 -2.8445 -38.686 26.702 135.82 -47.462 55.023 -0 0 -0 0.45973 0.70759 13.018 0.45973 0.70759 13.018 -0 0 -0 -0 0 -0 -0 0 -0 -0 0 -0 -0 0 -0 -0 0 -0 -0 0 -0 -0 0 -0 -0 0 -0 -0 0 -0 -0 0 -0 -0 0 -0 
0 95.5 0 -0 0 -0 -0 0 -0 -0 0 -0 4.7396 -3.1459 48.944 -0 0 -0 -0 0 -0 8.8702 -26.168 -14.465 -146.07 -49.16 -79.611 -0 0 -0 -0 0 -0 -3.0833 -38.363 26.378 135.88 -47.107 55.412 -0 0 -0 0.45063 0.52919 13.01 0.45063 0.52919 13.01 -0 0 -0 -0 0 -0 -0 0 -0 -0 0 -0 -0 0 -0 -0 0 -0 -0 0 -0 -0 0 -0 -0 0 -0 -0 0 -0 -0 0 -0 -0 0 -0 
0 95.5 0 -0 0 -0 -0 0 -0 -0 0 -0 4.6762 -3.199 49.189 -0 0 -0 -0 0 -0 8.9764 -26.019 -14.295 -145.25 -49.394 -78.728 -0 0 -0 -0 0 -0 -3.3785 -37.927 25.945 135.78 -46.787 55.581 -0 0 -0 0.38857 0.56737 12.973 0.38857 0.56737 12.973 -0 0 -0 -0 0 -0 -0 0 -0 -0 0 -0 -0 0 -0 -0 0 -0 -0 0 -0 -0 0 -0 -0 0 -0 -0 0 -0 -0 0 -0 -0 0 -0 
0 95.5 0 -0 0 -0 -0 0 -0 -0 0 -0 4.6537 -3.2912 49.449 -0 0 -0 -0 0 -0 9.0992 -25.71 -14.052 -144.32 -49.599 -77.644 -0 0 -0 -0 0 -0 -3.6995 -37.292 25.476 135.49 -46.647 55.516 -0 0 -0 0.3712 0.84345 12.897 0.3712 0.84345 12.897 -0 0 -0 -0 0 -0 -0 0 -0 -0 0 -0 -0 0 -0 -0 0 -0 -0 0 -0 -0 0 -0 -0 0 -0 -0 0 -0 -0 0 -0 -0 0 -0 
0 95.5 0 -0 0 -0 -0 0 -0 -0 0 -0 4.7107 -3.4163 49.674 -0 0 -0 -0 0 -0 9.2168 -25.196 -13.661 -143.13 -49.741 -76.062 -0 0 -0 -0 0 -0 -4.1127 -36.427 24.987 135.18 -46.63 55.273 -0 0 -0 0.39179 1.26 12.836 0.39179 1.26 12.836 -0 0 -0 -0 0 -0 -0 0 -0 -0 0 -0 -0 0 -0 -0 0 -0 -0 0 -0 -0 0 -0 -0 0 -0 -0 0 -0 -0 0 -0 -0 0 -0 
